<svg xmlns="http://www.w3.org/2000/svg" viewBox="0 0 16 16">
  <defs>
    <style>
      .cls-1 {
        fill: #95d53e;
      }

      .cls-2 {
        fill: #339503;
      }

      .cls-3 {
        fill: #58b20f;
      }

      .cls-4 {
        fill: #1f7b02;
      }

      .cls-5 {
        fill: #126801;
      }
    </style>
  </defs>
  <path class="cls-1"
    d="M12.93,6.92c-.29.06-.56.13-.82.21A8.53,8.53,0,0,0,10.79,4c-.15.08-.32.16-.49.27A9,9,0,0,0,8,1,9,9,0,0,0,5.7,4.23C5.53,4.12,5.36,4,5.21,4A8.53,8.53,0,0,0,3.89,7.13c-.26-.08-.53-.15-.82-.21C1.63,12.64,6.07,14.73,8,15,9.93,14.73,14.37,12.64,12.93,6.92Z" />
  <path class="cls-2" d="M9.82,11.27a5.71,5.71,0,0,0,1.25-3.76,6.59,6.59,0,0,0-1.7,1.07A6.16,6.16,0,0,1,9.82,11.27Z" />
  <path class="cls-2" d="M6.18,11.27A5.71,5.71,0,0,1,4.93,7.51a6.59,6.59,0,0,1,1.7,1.07A6.16,6.16,0,0,0,6.18,11.27Z" />
  <path class="cls-3"
    d="M9.37,8.58a6.59,6.59,0,0,1,1.7-1.07,8.57,8.57,0,0,0-.77-3.28A9.16,9.16,0,0,0,8,6.28,8.87,8.87,0,0,1,9.37,8.58Z" />
  <path class="cls-3"
    d="M6.63,8.58a6.59,6.59,0,0,0-1.7-1.07A8.57,8.57,0,0,1,5.7,4.23,9.16,9.16,0,0,1,8,6.28,8.87,8.87,0,0,0,6.63,8.58Z" />
  <path class="cls-3"
    d="M4.93,7.51a9,9,0,0,0-1-.38c-.62,3,0,6.63,4.11,7.87a5.84,5.84,0,0,1-1.82-3.73A5.71,5.71,0,0,1,4.93,7.51Z" />
  <path class="cls-3"
    d="M11.07,7.51a9,9,0,0,1,1-.38c.62,3,0,6.63-4.11,7.87a5.84,5.84,0,0,0,1.82-3.73A5.71,5.71,0,0,0,11.07,7.51Z" />
  <path class="cls-2"
    d="M8,6.28a8.87,8.87,0,0,0-1.37,2.3,5.14,5.14,0,0,1,1.37,2,5.14,5.14,0,0,1,1.37-2A8.87,8.87,0,0,0,8,6.28Z" />
  <path class="cls-2" d="M8.37,12.57A7.93,7.93,0,0,1,8,15a5.84,5.84,0,0,0,1.82-3.73A6.6,6.6,0,0,1,8.37,12.57Z" />
  <path class="cls-2" d="M7.63,12.57A7.93,7.93,0,0,0,8,15a5.84,5.84,0,0,1-1.82-3.73A6.6,6.6,0,0,0,7.63,12.57Z" />
  <path class="cls-4"
    d="M9.37,8.58a5.14,5.14,0,0,0-1.37,2,5.87,5.87,0,0,1,.37,2,6.36,6.36,0,0,0,1.45-1.3A6.16,6.16,0,0,0,9.37,8.58Z" />
  <path class="cls-4"
    d="M6.63,8.58a5.14,5.14,0,0,1,1.37,2,5.87,5.87,0,0,0-.37,2,6.36,6.36,0,0,1-1.45-1.3A6.16,6.16,0,0,1,6.63,8.58Z" />
  <path class="cls-5" d="M8.37,12.57a5.87,5.87,0,0,0-.37-2,5.87,5.87,0,0,0-.37,2l.37.24Z" />
  <path class="cls-4" d="M8,12.81l-.37-.24A8,8,0,0,0,8,15a8,8,0,0,0,.37-2.43Z" />
</svg>